<svg id="Layer_1" data-name="Layer 1" xmlns="http://www.w3.org/2000/svg" viewBox="0 0 64 64">
<title>bucket</title>
<path fill="black" fill-opacity="0.5413" d="M51.29,5.93A55.38,55.38,0,0,0,36,4,55.38,55.38,0,0,0,20.71,5.93C13.51,8.09,12,11.51,12,14a6.54,6.54,0,0,0,2.77,5.2A3.4,3.4,0,0,1,16,21.87v8a1.38,1.38,0,0,1-1.71,1.34c-4-1-6.29-2.94-6.29-4.43,0-1.08,1.19-2.4,3.47-3.45a.89.89,0,0,0,.53-.8v-.24a3.51,3.51,0,0,0-1.24-2.67l0,0a.48.48,0,0,0-.5-.07C6.33,21.25,4,23.85,4,26.83,4,32.07,11.17,36,20.67,36c.37,0,.74,0,1.1,0h.09A24.88,24.88,0,0,0,32,34s0,0,0,0a4,4,0,1,1,4,4,4,4,0,0,1-1.93-.52A28.26,28.26,0,0,1,21.86,40,33.65,33.65,0,0,1,16,39.5V54c0,3.31,9,6,20,6s20-2.69,20-6V21.87a3.4,3.4,0,0,1,1.23-2.66A6.54,6.54,0,0,0,60,14C60,11.51,58.49,8.09,51.29,5.93ZM36,16a43.87,43.87,0,0,1-14.23-2A43.87,43.87,0,0,1,36,12a43.87,43.87,0,0,1,14.23,2A43.87,43.87,0,0,1,36,16Z"/>
</svg>
