<svg width="24" height="24" viewBox="0 0 24 24" fill="none" xmlns="http://www.w3.org/2000/svg">
<g clip-path="url(#clip0)">
<path d="M21.4493 6.55084L19.6485 8.35162C19.4649 8.53521 19.168 8.53521 18.9844 8.35162L14.6485 4.01568C14.4649 3.83209 14.4649 3.53522 14.6485 3.35162L16.4493 1.55084C17.1797 0.820374 18.3672 0.820374 19.1016 1.55084L21.4493 3.8985C22.1836 4.62897 22.1836 5.81646 21.4493 6.55084ZM13.1016 4.8985L2.8438 15.1563L2.01568 19.9024C1.90239 20.543 2.46099 21.0977 3.10161 20.9883L7.84771 20.1563L18.1055 9.89849C18.2891 9.7149 18.2891 9.41803 18.1055 9.23443L13.7696 4.8985C13.5821 4.7149 13.2852 4.7149 13.1016 4.8985ZM6.84771 14.2774C6.63286 14.0626 6.63286 13.7188 6.84771 13.504L12.8633 7.48834C13.0782 7.2735 13.4219 7.2735 13.6368 7.48834C13.8516 7.70318 13.8516 8.04693 13.6368 8.26178L7.62114 14.2774C7.4063 14.4922 7.06255 14.4922 6.84771 14.2774ZM5.43755 17.5626H7.31255V18.9805L4.79302 19.4219L3.57818 18.2071L4.01958 15.6876H5.43755V17.5626Z" fill="black" fill-opacity="0.5413"/>
</g>
<defs>
<clipPath id="clip0">
<rect width="20" height="20" fill="white" transform="translate(2 1)"/>
</clipPath>
</defs>
</svg>
